<?xml version="1.0" standalone="no"?>
<!DOCTYPE svg PUBLIC "-//W3C//DTD SVG 20010904//EN"
 "http://www.w3.org/TR/2001/REC-SVG-20010904/DTD/svg10.dtd">
<svg version="1.0" xmlns="http://www.w3.org/2000/svg"
 width="1024.000000pt" height="1024.000000pt" viewBox="0 0 1024.000000 1024.000000"
 preserveAspectRatio="xMidYMid meet">

<g transform="translate(0.000000,1024.000000) scale(0.100000,-0.100000)"
fill="#000000" stroke="none">
<path d="M6000 7373 c0 -5 11 -20 25 -33 14 -13 23 -30 20 -38 -2 -7 0 -10 5
-7 6 3 10 1 10 -4 0 -6 3 -10 8 -8 4 1 9 -2 12 -8 3 -5 15 -20 27 -33 12 -13
25 -33 28 -43 4 -11 11 -19 16 -19 5 0 9 -9 9 -19 0 -11 12 -29 28 -39 28 -21
69 -82 55 -83 -4 0 2 -4 13 -9 12 -5 32 -23 44 -42 l23 -33 -27 28 c-15 15
-31 25 -36 22 -5 -3 -11 -1 -15 5 -3 5 -24 10 -46 10 -28 0 -39 4 -36 13 2 6
11 11 20 9 15 -3 34 34 23 45 -3 4 -6 -1 -6 -11 0 -10 -5 -14 -11 -11 -6 4
-16 0 -22 -8 -15 -18 -167 -41 -167 -25 0 4 18 8 40 8 29 0 40 4 40 15 0 12
-16 15 -80 15 -64 0 -81 3 -90 18 -10 14 -10 13 -5 -8 3 -14 8 -36 11 -50 19
-92 95 -269 159 -370 67 -106 236 -241 350 -280 98 -34 367 -71 379 -52 3 4
-6 39 -19 77 -13 37 -22 72 -19 77 3 4 1 8 -3 8 -14 0 -54 90 -47 102 4 6 3 8
-3 5 -5 -3 -22 22 -38 56 -16 34 -40 73 -52 87 -13 14 -19 26 -13 28 5 2 10 8
10 14 0 6 -7 7 -15 4 -10 -3 -18 1 -22 12 -4 9 -15 25 -26 34 -11 10 -16 22
-11 29 4 7 3 9 -3 6 -12 -7 -63 54 -63 74 0 7 -3 9 -7 6 -9 -9 -34 13 -27 24
3 5 -2 9 -11 9 -11 0 -15 5 -12 14 4 9 1 13 -6 10 -13 -5 -114 95 -109 109 1
5 -1 6 -6 3 -8 -5 -49 31 -78 69 -9 11 -12 13 -8 5 4 -8 -33 23 -82 70 -108
104 -134 126 -134 113z m184 -229 c3 -8 2 -12 -4 -9 -6 3 -10 10 -10 16 0 14
7 11 14 -7z m-247 -126 c-3 -8 -6 -5 -6 6 -1 11 2 17 5 13 3 -3 4 -12 1 -19z
m33 12 c0 -5 -2 -10 -4 -10 -3 0 -8 5 -11 10 -3 6 -1 10 4 10 6 0 11 -4 11
-10z m17 -22 c-3 -7 -5 -2 -5 12 0 14 2 19 5 13 2 -7 2 -19 0 -25z m273 -23
c7 19 7 19 17 0 10 -17 8 -20 -13 -21 -19 -2 -24 3 -23 20 1 20 2 20 7 1 5
-20 5 -20 12 0z m93 -60 c23 -32 17 -32 -13 0 -13 14 -19 25 -14 25 5 0 17
-12 27 -25z"/>
<path d="M5871 7224 c-1 -6 5 -32 13 -57 7 -25 12 -48 10 -50 -2 -2 2 -4 10
-4 12 0 12 5 0 33 -16 39 -18 58 -4 49 6 -3 10 -2 10 4 0 15 -20 24 -21 9 0
-7 -4 -4 -9 7 -5 11 -9 15 -9 9z"/>
<path d="M7295 7180 c-3 -5 -2 -10 4 -10 5 0 13 5 16 10 3 6 2 10 -4 10 -5 0
-13 -4 -16 -10z"/>
<path d="M7988 7136 c-73 -56 -301 -191 -333 -197 -11 -3 -18 -8 -17 -13 6
-15 -21 -25 -53 -20 -20 4 -26 3 -17 -4 11 -7 11 -10 -3 -16 -9 -3 -13 -11 -9
-17 4 -8 0 -8 -15 0 -11 7 -21 20 -21 31 0 10 -9 22 -20 25 -11 3 -21 11 -21
16 -1 5 -2 13 -3 18 0 6 -7 16 -14 23 -10 10 -14 10 -21 0 -6 -10 -13 -8 -33
8 -15 11 -29 20 -33 20 -3 0 -12 6 -19 13 -11 10 -10 15 1 25 7 8 13 8 13 2 0
-5 8 -10 17 -10 15 0 15 2 3 14 -16 15 -114 25 -126 13 -4 -4 2 -7 14 -7 12 0
22 -5 22 -11 0 -7 -9 -9 -22 -5 -13 3 -30 6 -38 6 -12 0 -13 2 -1 9 7 5 10 14
6 20 -5 9 -11 9 -23 -1 -9 -7 -2 6 17 30 18 23 37 40 42 36 10 -6 13 9 3 19
-9 9 -115 -107 -109 -120 2 -7 0 -12 -6 -10 -6 1 -16 -7 -22 -18 -7 -11 -15
-22 -18 -25 -13 -11 -70 -152 -68 -168 2 -9 -2 -26 -8 -37 -6 -11 -14 -37 -17
-57 -3 -21 -10 -57 -16 -80 -5 -24 -13 -110 -17 -191 l-6 -148 325 3 c240 2
329 6 340 15 8 7 17 10 21 7 3 -3 21 -1 39 4 18 6 52 16 76 22 43 11 49 29 9
31 -21 1 -21 1 2 8 42 12 37 31 -8 31 -34 0 -41 3 -41 20 0 14 -11 22 -40 30
-22 6 -40 17 -40 25 0 7 -8 16 -18 19 -11 4 -25 19 -33 34 -18 36 -28 42 -66
42 -28 0 -33 3 -33 25 0 18 5 25 19 25 11 0 23 5 27 12 5 8 2 9 -10 5 -10 -4
-24 -7 -32 -7 -8 0 -14 -7 -14 -15 0 -8 -8 -15 -17 -15 -14 0 -15 2 -4 9 8 5
10 14 6 21 -6 9 -4 11 5 5 10 -6 12 -4 6 10 -5 15 -4 16 9 5 14 -11 19 -10 37
7 13 14 16 23 9 27 -6 4 -11 0 -11 -8 0 -9 -7 -16 -17 -16 -14 0 -14 3 3 23
10 12 20 24 22 27 2 2 7 -1 11 -9 6 -10 10 -9 14 4 4 9 3 13 -3 10 -60 -37
148 159 264 250 97 75 216 178 216 186 0 16 -13 9 -82 -45z m-778 -87 c0 -6
-4 -7 -10 -4 -5 3 -10 11 -10 16 0 6 5 7 10 4 6 -3 10 -11 10 -16z m297 -155
c-3 -3 -12 -4 -19 -1 -8 3 -5 6 6 6 11 1 17 -2 13 -5z m-27 -24 c-8 -5 -19
-10 -25 -10 -5 0 -3 5 5 10 8 5 20 10 25 10 6 0 3 -5 -5 -10z m48 -9 c10 -6 9
-11 -4 -22 -14 -11 -16 -11 -10 0 5 8 3 17 -5 22 -8 5 -9 9 -4 9 6 0 16 -4 23
-9z m-53 -241 c-3 -5 -11 -10 -16 -10 -6 0 -7 5 -4 10 3 6 11 10 16 10 6 0 7
-4 4 -10z m12 -32 c-3 -8 -6 -5 -6 6 -1 11 2 17 5 13 3 -3 4 -12 1 -19z m-30
-20 c-3 -8 -6 -5 -6 6 -1 11 2 17 5 13 3 -3 4 -12 1 -19z m324 -183 c31 -15
32 -16 6 -10 -19 4 -26 2 -22 -4 4 -7 0 -8 -10 -4 -14 5 -14 8 -3 15 9 7 7 8
-10 5 -12 -3 -20 -1 -16 4 7 12 16 11 55 -6z"/>
<path d="M7324 7165 c-10 -8 -14 -15 -7 -15 6 0 15 5 18 10 4 6 11 7 17 4 7
-4 8 -2 4 4 -9 15 -8 15 -32 -3z"/>
<path d="M7335 7130 c-3 -5 -1 -10 4 -10 6 0 11 5 11 10 0 6 -2 10 -4 10 -3 0
-8 -4 -11 -10z"/>
<path d="M7261 7117 c-6 -8 -8 -17 -4 -20 12 -13 22 -7 20 13 -2 24 -1 24 -16
7z"/>
<path d="M6215 7050 c-3 -5 -1 -10 4 -10 6 0 11 5 11 10 0 6 -2 10 -4 10 -3 0
-8 -4 -11 -10z"/>
<path d="M7603 6939 c-1 -10 3 -22 9 -25 7 -5 8 -2 3 6 -4 7 -2 15 5 20 9 5 8
8 -2 13 -9 3 -14 -2 -15 -14z"/>
<path d="M6596 6803 c-6 -14 -5 -15 5 -6 7 7 10 15 7 18 -3 3 -9 -2 -12 -12z"/>
<path d="M6629 6808 c-5 -18 -6 -59 -2 -54 7 6 13 56 7 56 -2 0 -4 -1 -5 -2z"/>
<path d="M7927 6429 c7 -7 15 -10 18 -7 3 3 -2 9 -12 12 -14 6 -15 5 -6 -5z"/>
<path d="M7840 6390 c8 -5 20 -10 25 -10 6 0 3 5 -5 10 -8 5 -19 10 -25 10 -5
0 -3 -5 5 -10z"/>
<path d="M2612 6188 c-34 -5 -60 -14 -57 -19 4 -5 0 -6 -8 -3 -21 7 -113 -37
-179 -86 -55 -41 -135 -132 -175 -200 -59 -99 -82 -292 -47 -397 9 -26 137
-294 285 -595 148 -301 269 -549 269 -551 0 -2 35 -78 79 -168 43 -90 108
-225 143 -299 36 -74 125 -258 197 -409 l132 -273 -49 -122 c-91 -222 -113
-342 -82 -458 33 -123 149 -272 266 -339 81 -48 136 -67 224 -79 239 -33 480
91 583 300 20 41 98 215 173 385 148 338 238 539 291 655 20 41 43 93 53 115
10 22 43 93 74 159 31 65 56 120 56 122 0 2 13 32 29 66 16 35 31 70 33 78 2
8 6 17 9 20 22 18 162 337 154 350 -4 6 0 13 8 16 9 3 13 13 9 27 -3 12 -1 19
3 15 12 -11 46 62 49 104 1 20 -2 34 -6 32 -5 -3 -8 -13 -6 -22 1 -10 -1 -30
-5 -45 l-8 -28 -34 29 c-18 17 -43 33 -54 37 -12 3 -22 11 -22 16 -1 5 -2 13
-3 18 0 6 -7 16 -14 23 -10 10 -14 10 -21 0 -6 -10 -13 -8 -33 8 -15 11 -31
20 -37 20 -6 0 -11 3 -11 8 0 4 -23 21 -51 37 -28 17 -59 38 -67 48 -9 9 -21
17 -26 17 -5 0 -24 11 -42 25 -18 14 -37 25 -43 25 -6 0 -11 -11 -11 -25 0
-31 -27 -34 -32 -3 -2 15 -13 24 -34 30 -17 4 -36 19 -43 32 -9 16 -34 32 -74
46 -45 17 -56 25 -46 32 11 8 10 9 -4 4 -13 -4 -30 6 -57 34 -21 22 -48 40
-60 40 -24 0 -50 22 -50 43 0 27 -90 52 -90 25 0 -7 -5 -5 -11 5 -7 12 -7 22
1 35 10 15 11 14 7 -6 -3 -12 -1 -20 3 -17 5 3 8 19 8 36 l-1 31 -18 -23 c-10
-13 -19 -27 -19 -30 0 -4 -33 -76 -73 -160 -40 -85 -100 -213 -133 -286 -32
-73 -61 -133 -64 -133 -3 0 -19 30 -35 68 -30 71 -279 574 -311 629 -11 18
-23 33 -27 33 -5 0 -5 4 -2 10 6 9 -21 70 -31 70 -3 0 -2 -5 2 -12 4 -7 3 -8
-5 -4 -6 4 -9 11 -6 16 6 10 -20 67 -41 88 -8 7 -15 19 -16 25 0 7 -2 17 -2
22 -1 6 -13 31 -27 55 -15 25 -30 55 -33 68 -8 24 -21 29 -30 10 -3 -7 -3 -3
0 10 4 15 -6 46 -25 87 -17 35 -35 75 -41 89 -5 15 -16 26 -24 26 -8 0 -18 4
-21 10 -3 6 1 7 10 4 14 -6 14 -3 3 22 -32 73 -92 149 -109 138 -8 -5 -8 -9 1
-14 8 -5 3 -7 -13 -7 l-25 2 20 19 21 20 -39 34 c-21 18 -51 36 -66 39 -16 3
-28 8 -28 12 0 3 -12 11 -27 18 -106 45 -207 58 -311 41z m368 -88 c-12 -8
-12 -10 -1 -10 8 0 12 -3 8 -6 -9 -9 -28 6 -22 17 4 5 12 9 18 9 7 0 6 -4 -3
-10z m80 -54 c0 -3 -4 -8 -10 -11 -5 -3 -10 -1 -10 4 0 6 5 11 10 11 6 0 10
-2 10 -4z m110 -140 c0 -6 -7 -1 -15 10 -8 10 -15 23 -15 28 0 6 7 1 15 -10 8
-10 15 -23 15 -28z m-33 -18 c-3 -7 -5 -2 -5 12 0 14 2 19 5 13 2 -7 2 -19 0
-25z m93 -108 l13 -25 -20 20 c-11 11 -18 24 -16 28 6 10 7 9 23 -23z m20 -59
c0 -9 4 -22 10 -29 6 -8 5 -7 -4 0 -18 16 -33 63 -17 54 6 -4 11 -15 11 -25z
m58 -103 c-1 -7 6 -28 16 -46 9 -19 15 -36 13 -38 -7 -7 -47 78 -41 88 8 12
15 10 12 -4z m105 -243 c-3 -9 -8 -14 -10 -11 -3 3 -2 9 2 15 9 16 15 13 8 -4z
m727 -300 c0 -5 -5 -3 -10 5 -5 8 -10 20 -10 25 0 6 5 3 10 -5 5 -8 10 -19 10
-25z m580 -285 c0 -5 -6 -10 -14 -10 -8 0 -18 5 -21 10 -3 6 3 10 14 10 12 0
21 -4 21 -10z m80 -60 c0 -5 -6 -10 -14 -10 -8 0 -18 5 -21 10 -3 6 3 10 14
10 12 0 21 -4 21 -10z m-442 -29 c51 -17 94 -38 187 -89 13 -7 37 -28 54 -47
17 -20 31 -33 31 -29 0 4 9 -1 20 -11 11 -10 20 -24 20 -32 0 -7 4 -13 9 -13
11 0 39 -31 85 -92 32 -43 34 -48 16 -48 -11 0 -20 -5 -20 -11 0 -7 10 -9 25
-6 14 2 24 2 21 0 -3 -3 4 -15 15 -26 11 -12 15 -23 9 -25 -5 -2 -10 -10 -10
-18 0 -19 -28 -18 -48 3 -12 11 -13 18 -5 20 15 5 -15 43 -34 43 -7 0 -13 4
-13 9 0 5 -14 12 -31 16 -17 4 -28 10 -25 13 4 3 -24 25 -61 48 -38 24 -75 49
-83 57 -8 7 -22 16 -31 20 -13 4 -16 1 -12 -14 3 -10 1 -19 -4 -19 -16 0 -33
24 -33 47 0 13 -4 23 -8 23 -5 0 -19 9 -32 20 -14 12 -37 20 -59 20 -26 0 -41
6 -54 24 -12 16 -25 22 -42 19 -25 -5 -135 42 -135 58 0 5 5 9 10 9 6 0 10 6
10 13 0 35 144 46 228 18z m-248 -15 c0 -2 -8 -10 -17 -17 -16 -13 -17 -12 -4
4 13 16 21 21 21 13z m841 -55 c-9 -6 -10 -11 -2 -15 14 -9 14 -26 0 -26 -6 0
-22 9 -36 19 -13 11 -31 17 -39 14 -8 -3 -14 0 -14 6 0 7 21 11 53 11 33 0 47
-3 38 -9z m9 -81 c0 -5 -4 -10 -10 -10 -5 0 -10 5 -10 10 0 6 5 10 10 10 6 0
10 -4 10 -10z m124 -32 c-5 -8 -10 -5 -14 8 -10 25 0 41 12 20 5 -9 6 -21 2
-28z m-27 -30 c-3 -8 -6 -5 -6 6 -1 11 2 17 5 13 3 -3 4 -12 1 -19z m-331
-182 c30 -31 8 -36 -27 -6 -21 17 -22 19 -6 20 10 0 25 -6 33 -14z"/>
<path d="M4706 4411 c-4 -6 -3 -11 3 -11 5 0 11 -12 13 -27 2 -20 5 -23 9 -12
9 19 -15 66 -25 50z"/>
<path d="M7460 6170 c-32 -5 -18 -6 48 -5 51 1 94 4 96 6 7 7 -97 7 -144 -1z"/>
<path d="M7628 6163 c6 -2 18 -2 25 0 6 3 1 5 -13 5 -14 0 -19 -2 -12 -5z"/>
<path d="M7724 6135 c11 -8 26 -15 33 -15 7 0 13 -4 13 -10 0 -5 -6 -7 -14 -4
-8 3 -23 1 -33 -5 -14 -8 -7 -10 29 -6 25 3 49 2 52 -3 2 -4 -7 -7 -22 -6 -15
1 -36 -2 -47 -6 -13 -6 -2 -8 32 -7 54 2 74 -9 78 -40 1 -10 7 -31 13 -46 12
-29 9 -47 -9 -47 -5 0 -9 14 -9 30 0 28 -2 30 -40 30 l-40 0 0 -40 0 -40 -40
0 c-33 0 -40 3 -40 20 0 19 -7 20 -120 20 -113 0 -120 1 -120 20 0 17 -7 20
-40 20 -22 0 -40 5 -40 10 0 6 -16 10 -36 10 -41 0 -103 26 -111 47 -4 10 -22
-3 -61 -44 -74 -78 -92 -107 -181 -290 -42 -87 -111 -223 -153 -303 -41 -80
-122 -235 -178 -345 -175 -340 -263 -510 -270 -520 -4 -5 -26 -46 -50 -90 -81
-152 -95 -175 -104 -172 -5 2 -50 93 -99 203 -231 517 -301 670 -315 686 -9
11 -20 15 -29 9 -8 -4 -57 -99 -110 -212 -241 -517 -295 -632 -415 -879 -86
-177 -108 -231 -105 -255 3 -16 107 -244 232 -505 487 -1020 472 -993 608
-1081 105 -68 157 -83 287 -83 100 0 125 3 190 27 186 68 322 208 374 386 18
62 21 204 6 298 l-10 61 246 484 c135 265 267 521 291 568 65 121 581 1149
626 1246 23 50 35 88 31 100 -5 15 -4 16 4 4 9 -12 12 -10 20 10 6 14 20 48
32 75 17 38 22 69 21 130 -1 82 -2 93 -15 158 -10 45 -26 32 -26 -20 0 -18 -4
-33 -10 -33 -5 0 -10 9 -10 21 0 34 -19 59 -45 59 -22 0 -25 4 -25 40 0 36 -2
40 -25 40 -16 0 -25 6 -25 15 0 8 -6 15 -12 15 -17 1 -77 50 -60 50 13 0 41
26 57 54 15 26 28 20 32 -16 3 -30 2 -31 -12 -13 -8 11 -15 15 -15 9 0 -18 22
-30 51 -29 20 1 29 -6 39 -29 10 -22 10 -31 2 -34 -7 -2 -12 -16 -12 -32 0
-28 11 -33 36 -17 16 10 36 -17 28 -39 -5 -17 -4 -17 5 -2 12 18 -16 96 -44
124 -8 9 -15 21 -15 27 -1 15 -56 76 -72 79 -7 2 -21 15 -30 31 -10 15 -25 27
-34 27 -9 0 -24 8 -33 18 -19 21 -54 43 -96 60 -28 11 -28 11 -11 -3z m156
-111 c0 -8 5 -14 10 -14 16 0 12 -27 -6 -34 -12 -4 -14 -1 -9 14 5 15 2 20
-11 20 -13 0 -14 3 -5 13 6 8 7 18 3 22 -4 5 -1 5 6 1 6 -4 12 -14 12 -22z
m-676 -12 c3 -5 -1 -9 -9 -9 -8 0 -12 4 -9 9 3 4 7 8 9 8 2 0 6 -4 9 -8z m771
-80 c-6 -7 -34 29 -34 43 0 6 9 -1 20 -14 11 -13 17 -26 14 -29z m-861 2 c3
-8 2 -12 -4 -9 -6 3 -10 10 -10 16 0 14 7 11 14 -7z m907 -95 c-5 -13 -10 -19
-10 -12 -1 15 10 45 15 40 3 -2 0 -15 -5 -28z m61 -161 c-9 -9 -12 -7 -12 12
0 19 3 21 12 12 9 -9 9 -15 0 -24z m18 -72 c0 -1 -8 -2 -18 -3 -15 -1 -17 4
-14 28 l4 30 14 -27 c8 -14 14 -27 14 -28z"/>
<path d="M7292 6122 c-8 -6 -2 -9 17 -9 17 0 28 4 25 9 -7 10 -25 10 -42 0z"/>
<path d="M7608 6113 c6 -2 18 -2 25 0 6 3 1 5 -13 5 -14 0 -19 -2 -12 -5z"/>
<path d="M7690 6110 c-8 -5 -10 -10 -5 -10 6 0 17 5 25 10 8 5 11 10 5 10 -5
0 -17 -5 -25 -10z"/>
<path d="M7249 6101 c-1 -3 -1 -9 0 -13 0 -4 -7 -4 -16 -1 -11 4 -14 3 -9 -5
9 -15 53 -16 61 -2 4 7 24 8 51 4 38 -5 43 -4 38 10 -3 9 -10 16 -16 16 -5 0
-6 -4 -3 -10 7 -11 -18 -14 -29 -3 -9 9 -76 12 -77 4z"/>
<path d="M7443 6073 c15 -2 37 -2 50 0 12 2 0 4 -28 4 -27 0 -38 -2 -22 -4z"/>
<path d="M7885 5930 c-3 -5 1 -10 9 -10 9 0 16 5 16 10 0 6 -4 10 -9 10 -6 0
-13 -4 -16 -10z"/>
<path d="M8031 5803 c0 -6 -4 -20 -7 -30 -5 -14 -4 -15 5 -7 7 7 11 20 8 30
-3 11 -5 14 -6 7z"/>
<path d="M4176 5243 c-6 -14 -5 -15 5 -6 7 7 10 15 7 18 -3 3 -9 -2 -12 -12z"/>
<path d="M4440 4975 c0 -8 9 -15 20 -15 11 0 20 2 20 5 0 2 -9 9 -20 15 -16 9
-20 8 -20 -5z"/>
<path d="M4584 4885 c25 -25 56 -33 56 -15 0 6 -8 10 -19 10 -10 0 -24 7 -31
15 -7 8 -17 15 -22 15 -5 0 2 -11 16 -25z"/>
<path d="M5167 4681 c-4 -17 -3 -21 5 -13 5 5 8 16 6 23 -3 8 -7 3 -11 -10z"/>
</g>
</svg>
